<?xml version="1.0" encoding="UTF-8" standalone="no"?><!DOCTYPE svg PUBLIC "-//W3C//DTD SVG 1.1//EN" "http://www.w3.org/Graphics/SVG/1.1/DTD/svg11.dtd"><svg width="100%" height="100%" viewBox="0 0 842 596" version="1.1" xmlns="http://www.w3.org/2000/svg" xmlns:xlink="http://www.w3.org/1999/xlink" xml:space="preserve" xmlns:serif="http://www.serif.com/" style="fill-rule:evenodd;clip-rule:evenodd;stroke-linejoin:round;stroke-miterlimit:2;"><rect x="12.001" y="166.541" width="342.089" height="262.194" style="fill:#50626d;"/><g transform="matrix(1,0,0,0.85031,0,-3.061227)"><g transform="matrix(290.678694,0,0,290.678694,190.142823,468.446308)"></g><text x="29.475px" y="468.446px" style="font-family:'Impact', sans-serif;font-stretch:condensed;font-size:290.679px;fill:#ebebeb;stroke:#fff;stroke-width:1.08px;">D</text></g><g transform="matrix(1,0,-0,0.85031,0,-53.556669)"><g transform="matrix(278.760854,0,0,278.760854,337.772422,523.203157)"></g><text x="183.419px" y="523.203px" style="font-family:'Impact', sans-serif;font-stretch:condensed;font-size:278.761px;fill:#ebebeb;stroke:#fff;stroke-width:1.08px;">C</text></g><g transform="matrix(1,0,0,0.989264,0,0.416317)"><g transform="matrix(189.246643,0,0,189.246643,902.242462,354.508227)"></g><text x="369.617px" y="354.508px" style="font-family:'Impact', sans-serif;font-stretch:condensed;font-size:189.247px;fill:#50626d;">Group</text></g><g transform="matrix(1,0,0,0.989264,0,3.362229)"><g transform="matrix(30.09868,0,0,30.09868,789.200819,392.78883)"></g><text x="376.094px" y="392.789px" style="font-family:'Impact', sans-serif;font-stretch:condensed;font-size:30.099px;fill:#13191c;">The par<tspan x="468.535px 477.706px " y="392.789px 392.789px ">tn</tspan>er behind your progress</text></g></svg>